<mxfile host="app.diagrams.net" modified="2020-05-10T00:41:12.045Z" agent="5.0 (Windows NT 10.0; Win64; x64) AppleWebKit/537.36 (KHTML, like Gecko) Chrome/81.0.4044.129 Safari/537.36" etag="-ofSDQcQeen0yAr_ztPO" version="13.0.9" type="github">
  <diagram id="UpAK0fxvu-gSVWHmr6I7" name="Page-1">
    <mxGraphModel dx="1422" dy="762" grid="1" gridSize="10" guides="1" tooltips="1" connect="1" arrows="1" fold="1" page="1" pageScale="1" pageWidth="850" pageHeight="1100" math="0" shadow="0">
      <root>
        <mxCell id="0" />
        <mxCell id="1" parent="0" />
        <mxCell id="rHH7kZXuoE2YYjR0WJDN-1" value="Healthy Shield" style="rounded=0;whiteSpace=wrap;html=1;" parent="1" vertex="1">
          <mxGeometry x="619" y="42" width="160" height="42" as="geometry" />
        </mxCell>
        <mxCell id="rHH7kZXuoE2YYjR0WJDN-2" value="" style="endArrow=classic;html=1;" parent="1" edge="1">
          <mxGeometry width="50" height="50" relative="1" as="geometry">
            <mxPoint x="698" y="85" as="sourcePoint" />
            <mxPoint x="698" y="142" as="targetPoint" />
            <Array as="points">
              <mxPoint x="698" y="122" />
            </Array>
          </mxGeometry>
        </mxCell>
        <mxCell id="rHH7kZXuoE2YYjR0WJDN-3" value="" style="endArrow=classic;html=1;" parent="1" edge="1">
          <mxGeometry width="50" height="50" relative="1" as="geometry">
            <mxPoint x="400" y="140" as="sourcePoint" />
            <mxPoint x="80" y="140" as="targetPoint" />
          </mxGeometry>
        </mxCell>
        <mxCell id="rHH7kZXuoE2YYjR0WJDN-4" value="" style="endArrow=classic;html=1;" parent="1" target="rHH7kZXuoE2YYjR0WJDN-5" edge="1">
          <mxGeometry width="50" height="50" relative="1" as="geometry">
            <mxPoint x="80" y="140" as="sourcePoint" />
            <mxPoint x="80" y="170" as="targetPoint" />
          </mxGeometry>
        </mxCell>
        <mxCell id="rHH7kZXuoE2YYjR0WJDN-5" value="Admin" style="rounded=0;whiteSpace=wrap;html=1;" parent="1" vertex="1">
          <mxGeometry x="20" y="170" width="120" height="30" as="geometry" />
        </mxCell>
        <mxCell id="rHH7kZXuoE2YYjR0WJDN-6" value="" style="endArrow=classic;html=1;exitX=0.142;exitY=1.1;exitDx=0;exitDy=0;exitPerimeter=0;" parent="1" edge="1">
          <mxGeometry width="50" height="50" relative="1" as="geometry">
            <mxPoint x="31.039999999999964" y="201" as="sourcePoint" />
            <mxPoint x="31" y="470" as="targetPoint" />
          </mxGeometry>
        </mxCell>
        <mxCell id="rHH7kZXuoE2YYjR0WJDN-7" value="" style="endArrow=classic;html=1;" parent="1" target="rHH7kZXuoE2YYjR0WJDN-8" edge="1">
          <mxGeometry width="50" height="50" relative="1" as="geometry">
            <mxPoint x="30" y="240" as="sourcePoint" />
            <mxPoint x="60" y="240" as="targetPoint" />
          </mxGeometry>
        </mxCell>
        <mxCell id="rHH7kZXuoE2YYjR0WJDN-8" value="Doctor&#39;s Registration" style="rounded=0;whiteSpace=wrap;html=1;" parent="1" vertex="1">
          <mxGeometry x="60" y="220" width="120" height="40" as="geometry" />
        </mxCell>
        <mxCell id="rHH7kZXuoE2YYjR0WJDN-9" value="" style="endArrow=classic;html=1;" parent="1" edge="1">
          <mxGeometry width="50" height="50" relative="1" as="geometry">
            <mxPoint x="30" y="289" as="sourcePoint" />
            <mxPoint x="60" y="289" as="targetPoint" />
          </mxGeometry>
        </mxCell>
        <mxCell id="rHH7kZXuoE2YYjR0WJDN-10" value="Hospital&#39;s User Registration" style="rounded=0;whiteSpace=wrap;html=1;" parent="1" vertex="1">
          <mxGeometry x="60" y="270" width="120" height="40" as="geometry" />
        </mxCell>
        <mxCell id="rHH7kZXuoE2YYjR0WJDN-11" value="Ambulance&#39;s User Registration" style="rounded=0;whiteSpace=wrap;html=1;" parent="1" vertex="1">
          <mxGeometry x="60" y="320" width="120" height="40" as="geometry" />
        </mxCell>
        <mxCell id="rHH7kZXuoE2YYjR0WJDN-12" value="" style="endArrow=classic;html=1;entryX=0;entryY=0.5;entryDx=0;entryDy=0;" parent="1" target="rHH7kZXuoE2YYjR0WJDN-11" edge="1">
          <mxGeometry width="50" height="50" relative="1" as="geometry">
            <mxPoint x="30" y="340" as="sourcePoint" />
            <mxPoint x="70" y="299" as="targetPoint" />
          </mxGeometry>
        </mxCell>
        <mxCell id="rHH7kZXuoE2YYjR0WJDN-13" value="View All Reports" style="rounded=0;whiteSpace=wrap;html=1;" parent="1" vertex="1">
          <mxGeometry x="60" y="370" width="120" height="40" as="geometry" />
        </mxCell>
        <mxCell id="rHH7kZXuoE2YYjR0WJDN-14" value="" style="endArrow=classic;html=1;entryX=0;entryY=0.5;entryDx=0;entryDy=0;" parent="1" target="rHH7kZXuoE2YYjR0WJDN-13" edge="1">
          <mxGeometry width="50" height="50" relative="1" as="geometry">
            <mxPoint x="30" y="390" as="sourcePoint" />
            <mxPoint x="70" y="350" as="targetPoint" />
          </mxGeometry>
        </mxCell>
        <mxCell id="rHH7kZXuoE2YYjR0WJDN-27" value="" style="endArrow=classic;html=1;" parent="1" target="rHH7kZXuoE2YYjR0WJDN-28" edge="1">
          <mxGeometry width="50" height="50" relative="1" as="geometry">
            <mxPoint x="400" y="140" as="sourcePoint" />
            <mxPoint x="400" y="170" as="targetPoint" />
          </mxGeometry>
        </mxCell>
        <mxCell id="rHH7kZXuoE2YYjR0WJDN-28" value="User" style="rounded=0;whiteSpace=wrap;html=1;" parent="1" vertex="1">
          <mxGeometry x="340" y="170" width="120" height="30" as="geometry" />
        </mxCell>
        <mxCell id="rHH7kZXuoE2YYjR0WJDN-29" value="" style="endArrow=classic;html=1;exitX=0.142;exitY=1.1;exitDx=0;exitDy=0;exitPerimeter=0;" parent="1" edge="1">
          <mxGeometry width="50" height="50" relative="1" as="geometry">
            <mxPoint x="351.03999999999996" y="200" as="sourcePoint" />
            <mxPoint x="351" y="649" as="targetPoint" />
          </mxGeometry>
        </mxCell>
        <mxCell id="rHH7kZXuoE2YYjR0WJDN-30" value="" style="endArrow=classic;html=1;" parent="1" target="rHH7kZXuoE2YYjR0WJDN-31" edge="1">
          <mxGeometry width="50" height="50" relative="1" as="geometry">
            <mxPoint x="350" y="240" as="sourcePoint" />
            <mxPoint x="380" y="240" as="targetPoint" />
          </mxGeometry>
        </mxCell>
        <mxCell id="rHH7kZXuoE2YYjR0WJDN-31" value="Registartion" style="rounded=0;whiteSpace=wrap;html=1;" parent="1" vertex="1">
          <mxGeometry x="380" y="220" width="120" height="40" as="geometry" />
        </mxCell>
        <mxCell id="rHH7kZXuoE2YYjR0WJDN-32" value="" style="endArrow=classic;html=1;" parent="1" edge="1">
          <mxGeometry width="50" height="50" relative="1" as="geometry">
            <mxPoint x="350" y="289" as="sourcePoint" />
            <mxPoint x="380" y="289" as="targetPoint" />
          </mxGeometry>
        </mxCell>
        <mxCell id="rHH7kZXuoE2YYjR0WJDN-33" value="Login" style="rounded=0;whiteSpace=wrap;html=1;" parent="1" vertex="1">
          <mxGeometry x="380" y="270" width="120" height="40" as="geometry" />
        </mxCell>
        <mxCell id="rHH7kZXuoE2YYjR0WJDN-34" value="Edit Profile/View Profile" style="rounded=0;whiteSpace=wrap;html=1;" parent="1" vertex="1">
          <mxGeometry x="380" y="320" width="120" height="40" as="geometry" />
        </mxCell>
        <mxCell id="rHH7kZXuoE2YYjR0WJDN-35" value="" style="endArrow=classic;html=1;entryX=0;entryY=0.5;entryDx=0;entryDy=0;" parent="1" target="rHH7kZXuoE2YYjR0WJDN-34" edge="1">
          <mxGeometry width="50" height="50" relative="1" as="geometry">
            <mxPoint x="350" y="340" as="sourcePoint" />
            <mxPoint x="390" y="299" as="targetPoint" />
          </mxGeometry>
        </mxCell>
        <mxCell id="rHH7kZXuoE2YYjR0WJDN-36" value="Show User Barcode" style="rounded=0;whiteSpace=wrap;html=1;" parent="1" vertex="1">
          <mxGeometry x="380" y="370" width="120" height="40" as="geometry" />
        </mxCell>
        <mxCell id="rHH7kZXuoE2YYjR0WJDN-37" value="" style="endArrow=classic;html=1;entryX=0;entryY=0.5;entryDx=0;entryDy=0;" parent="1" target="rHH7kZXuoE2YYjR0WJDN-36" edge="1">
          <mxGeometry width="50" height="50" relative="1" as="geometry">
            <mxPoint x="350" y="390" as="sourcePoint" />
            <mxPoint x="390" y="350" as="targetPoint" />
          </mxGeometry>
        </mxCell>
        <mxCell id="rHH7kZXuoE2YYjR0WJDN-38" value="" style="endArrow=classic;html=1;" parent="1" edge="1">
          <mxGeometry width="50" height="50" relative="1" as="geometry">
            <mxPoint x="350" y="441" as="sourcePoint" />
            <mxPoint x="380" y="441" as="targetPoint" />
          </mxGeometry>
        </mxCell>
        <mxCell id="rHH7kZXuoE2YYjR0WJDN-39" value="" style="endArrow=classic;html=1;" parent="1" edge="1">
          <mxGeometry width="50" height="50" relative="1" as="geometry">
            <mxPoint x="350" y="491" as="sourcePoint" />
            <mxPoint x="380" y="491" as="targetPoint" />
          </mxGeometry>
        </mxCell>
        <mxCell id="rHH7kZXuoE2YYjR0WJDN-40" value="Request an Ambulance" style="rounded=0;whiteSpace=wrap;html=1;" parent="1" vertex="1">
          <mxGeometry x="380" y="421" width="120" height="40" as="geometry" />
        </mxCell>
        <mxCell id="rHH7kZXuoE2YYjR0WJDN-41" value="View Medical History" style="rounded=0;whiteSpace=wrap;html=1;" parent="1" vertex="1">
          <mxGeometry x="380" y="470" width="120" height="40" as="geometry" />
        </mxCell>
        <mxCell id="rHH7kZXuoE2YYjR0WJDN-42" value="Make Reports" style="rounded=0;whiteSpace=wrap;html=1;" parent="1" vertex="1">
          <mxGeometry x="380" y="520" width="120" height="40" as="geometry" />
        </mxCell>
        <mxCell id="rHH7kZXuoE2YYjR0WJDN-43" value="" style="endArrow=classic;html=1;entryX=0;entryY=0.5;entryDx=0;entryDy=0;" parent="1" target="rHH7kZXuoE2YYjR0WJDN-42" edge="1">
          <mxGeometry width="50" height="50" relative="1" as="geometry">
            <mxPoint x="350" y="540" as="sourcePoint" />
            <mxPoint x="390" y="500" as="targetPoint" />
          </mxGeometry>
        </mxCell>
        <mxCell id="rHH7kZXuoE2YYjR0WJDN-46" value="" style="endArrow=none;html=1;endFill=0;" parent="1" edge="1">
          <mxGeometry width="50" height="50" relative="1" as="geometry">
            <mxPoint x="400" y="140" as="sourcePoint" />
            <mxPoint x="1250" y="140" as="targetPoint" />
          </mxGeometry>
        </mxCell>
        <mxCell id="rHH7kZXuoE2YYjR0WJDN-48" value="" style="endArrow=classic;html=1;" parent="1" edge="1">
          <mxGeometry width="50" height="50" relative="1" as="geometry">
            <mxPoint x="697" y="141" as="sourcePoint" />
            <mxPoint x="697" y="171" as="targetPoint" />
          </mxGeometry>
        </mxCell>
        <mxCell id="rHH7kZXuoE2YYjR0WJDN-65" value="Ambulance" style="rounded=0;whiteSpace=wrap;html=1;" parent="1" vertex="1">
          <mxGeometry x="640" y="170" width="120" height="30" as="geometry" />
        </mxCell>
        <mxCell id="rHH7kZXuoE2YYjR0WJDN-66" value="" style="endArrow=classic;html=1;exitX=0.142;exitY=1.1;exitDx=0;exitDy=0;exitPerimeter=0;" parent="1" edge="1">
          <mxGeometry width="50" height="50" relative="1" as="geometry">
            <mxPoint x="651.04" y="200" as="sourcePoint" />
            <mxPoint x="651" y="649" as="targetPoint" />
          </mxGeometry>
        </mxCell>
        <mxCell id="rHH7kZXuoE2YYjR0WJDN-67" value="" style="endArrow=classic;html=1;" parent="1" target="rHH7kZXuoE2YYjR0WJDN-68" edge="1">
          <mxGeometry width="50" height="50" relative="1" as="geometry">
            <mxPoint x="650" y="240" as="sourcePoint" />
            <mxPoint x="680" y="240" as="targetPoint" />
          </mxGeometry>
        </mxCell>
        <mxCell id="rHH7kZXuoE2YYjR0WJDN-68" value="Registartion" style="rounded=0;whiteSpace=wrap;html=1;" parent="1" vertex="1">
          <mxGeometry x="680" y="220" width="120" height="40" as="geometry" />
        </mxCell>
        <mxCell id="rHH7kZXuoE2YYjR0WJDN-69" value="" style="endArrow=classic;html=1;" parent="1" edge="1">
          <mxGeometry width="50" height="50" relative="1" as="geometry">
            <mxPoint x="650" y="289" as="sourcePoint" />
            <mxPoint x="680" y="289" as="targetPoint" />
          </mxGeometry>
        </mxCell>
        <mxCell id="rHH7kZXuoE2YYjR0WJDN-70" value="Login" style="rounded=0;whiteSpace=wrap;html=1;" parent="1" vertex="1">
          <mxGeometry x="680" y="270" width="120" height="40" as="geometry" />
        </mxCell>
        <mxCell id="rHH7kZXuoE2YYjR0WJDN-73" value="View User Requests/View User&#39;s Medical details" style="rounded=0;whiteSpace=wrap;html=1;" parent="1" vertex="1">
          <mxGeometry x="680" y="370" width="120" height="60" as="geometry" />
        </mxCell>
        <mxCell id="rHH7kZXuoE2YYjR0WJDN-74" value="" style="endArrow=classic;html=1;entryX=0;entryY=0.5;entryDx=0;entryDy=0;" parent="1" target="rHH7kZXuoE2YYjR0WJDN-73" edge="1">
          <mxGeometry width="50" height="50" relative="1" as="geometry">
            <mxPoint x="650" y="400" as="sourcePoint" />
            <mxPoint x="690" y="350" as="targetPoint" />
          </mxGeometry>
        </mxCell>
        <mxCell id="rHH7kZXuoE2YYjR0WJDN-79" value="Make Reports" style="rounded=0;whiteSpace=wrap;html=1;" parent="1" vertex="1">
          <mxGeometry x="680" y="436.5" width="120" height="40" as="geometry" />
        </mxCell>
        <mxCell id="rHH7kZXuoE2YYjR0WJDN-80" value="" style="endArrow=classic;html=1;entryX=0;entryY=0.5;entryDx=0;entryDy=0;" parent="1" target="rHH7kZXuoE2YYjR0WJDN-79" edge="1">
          <mxGeometry width="50" height="50" relative="1" as="geometry">
            <mxPoint x="650" y="457" as="sourcePoint" />
            <mxPoint x="690" y="380" as="targetPoint" />
          </mxGeometry>
        </mxCell>
        <mxCell id="rHH7kZXuoE2YYjR0WJDN-82" value="Edit Profile/View Profile" style="rounded=0;whiteSpace=wrap;html=1;" parent="1" vertex="1">
          <mxGeometry x="680" y="320" width="120" height="40" as="geometry" />
        </mxCell>
        <mxCell id="rHH7kZXuoE2YYjR0WJDN-83" value="" style="endArrow=classic;html=1;entryX=0;entryY=0.5;entryDx=0;entryDy=0;" parent="1" target="rHH7kZXuoE2YYjR0WJDN-82" edge="1">
          <mxGeometry width="50" height="50" relative="1" as="geometry">
            <mxPoint x="650" y="340" as="sourcePoint" />
            <mxPoint x="690" y="299" as="targetPoint" />
          </mxGeometry>
        </mxCell>
        <mxCell id="rHH7kZXuoE2YYjR0WJDN-117" value="" style="endArrow=classic;html=1;" parent="1" target="rHH7kZXuoE2YYjR0WJDN-118" edge="1">
          <mxGeometry width="50" height="50" relative="1" as="geometry">
            <mxPoint x="950" y="140" as="sourcePoint" />
            <mxPoint x="950" y="165.5" as="targetPoint" />
          </mxGeometry>
        </mxCell>
        <mxCell id="rHH7kZXuoE2YYjR0WJDN-118" value="Hospital" style="rounded=0;whiteSpace=wrap;html=1;" parent="1" vertex="1">
          <mxGeometry x="890" y="165.5" width="120" height="30" as="geometry" />
        </mxCell>
        <mxCell id="rHH7kZXuoE2YYjR0WJDN-119" value="" style="endArrow=classic;html=1;exitX=0.142;exitY=1.1;exitDx=0;exitDy=0;exitPerimeter=0;" parent="1" edge="1">
          <mxGeometry width="50" height="50" relative="1" as="geometry">
            <mxPoint x="901.04" y="195.5" as="sourcePoint" />
            <mxPoint x="901" y="644.5" as="targetPoint" />
          </mxGeometry>
        </mxCell>
        <mxCell id="rHH7kZXuoE2YYjR0WJDN-122" value="" style="endArrow=classic;html=1;" parent="1" edge="1">
          <mxGeometry width="50" height="50" relative="1" as="geometry">
            <mxPoint x="900" y="239" as="sourcePoint" />
            <mxPoint x="930" y="239" as="targetPoint" />
          </mxGeometry>
        </mxCell>
        <mxCell id="rHH7kZXuoE2YYjR0WJDN-123" value="Login" style="rounded=0;whiteSpace=wrap;html=1;" parent="1" vertex="1">
          <mxGeometry x="930" y="220" width="120" height="40" as="geometry" />
        </mxCell>
        <mxCell id="rHH7kZXuoE2YYjR0WJDN-124" value="Edit Profile/View Profile" style="rounded=0;whiteSpace=wrap;html=1;" parent="1" vertex="1">
          <mxGeometry x="930" y="270" width="120" height="40" as="geometry" />
        </mxCell>
        <mxCell id="rHH7kZXuoE2YYjR0WJDN-125" value="" style="endArrow=classic;html=1;entryX=0;entryY=0.5;entryDx=0;entryDy=0;" parent="1" target="rHH7kZXuoE2YYjR0WJDN-124" edge="1">
          <mxGeometry width="50" height="50" relative="1" as="geometry">
            <mxPoint x="900" y="290" as="sourcePoint" />
            <mxPoint x="940" y="249" as="targetPoint" />
          </mxGeometry>
        </mxCell>
        <mxCell id="rHH7kZXuoE2YYjR0WJDN-126" value="Add Visit/Scan user barcode" style="rounded=0;whiteSpace=wrap;html=1;" parent="1" vertex="1">
          <mxGeometry x="930" y="320" width="120" height="40" as="geometry" />
        </mxCell>
        <mxCell id="rHH7kZXuoE2YYjR0WJDN-127" value="" style="endArrow=classic;html=1;entryX=0;entryY=0.5;entryDx=0;entryDy=0;" parent="1" target="rHH7kZXuoE2YYjR0WJDN-126" edge="1">
          <mxGeometry width="50" height="50" relative="1" as="geometry">
            <mxPoint x="900" y="340" as="sourcePoint" />
            <mxPoint x="940" y="300" as="targetPoint" />
          </mxGeometry>
        </mxCell>
        <mxCell id="rHH7kZXuoE2YYjR0WJDN-128" value="" style="endArrow=classic;html=1;" parent="1" edge="1">
          <mxGeometry width="50" height="50" relative="1" as="geometry">
            <mxPoint x="900" y="391" as="sourcePoint" />
            <mxPoint x="930" y="391" as="targetPoint" />
          </mxGeometry>
        </mxCell>
        <mxCell id="rHH7kZXuoE2YYjR0WJDN-129" value="" style="endArrow=classic;html=1;" parent="1" edge="1">
          <mxGeometry width="50" height="50" relative="1" as="geometry">
            <mxPoint x="900" y="441" as="sourcePoint" />
            <mxPoint x="930" y="441" as="targetPoint" />
          </mxGeometry>
        </mxCell>
        <mxCell id="rHH7kZXuoE2YYjR0WJDN-130" value="Register Users" style="rounded=0;whiteSpace=wrap;html=1;" parent="1" vertex="1">
          <mxGeometry x="930" y="371" width="120" height="40" as="geometry" />
        </mxCell>
        <mxCell id="rHH7kZXuoE2YYjR0WJDN-131" value="See insurance percentage" style="rounded=0;whiteSpace=wrap;html=1;" parent="1" vertex="1">
          <mxGeometry x="930" y="420" width="120" height="40" as="geometry" />
        </mxCell>
        <mxCell id="rHH7kZXuoE2YYjR0WJDN-132" value="Make Reports" style="rounded=0;whiteSpace=wrap;html=1;" parent="1" vertex="1">
          <mxGeometry x="930" y="470" width="120" height="40" as="geometry" />
        </mxCell>
        <mxCell id="rHH7kZXuoE2YYjR0WJDN-133" value="" style="endArrow=classic;html=1;entryX=0;entryY=0.5;entryDx=0;entryDy=0;" parent="1" target="rHH7kZXuoE2YYjR0WJDN-132" edge="1">
          <mxGeometry width="50" height="50" relative="1" as="geometry">
            <mxPoint x="900" y="490" as="sourcePoint" />
            <mxPoint x="940" y="450" as="targetPoint" />
          </mxGeometry>
        </mxCell>
        <mxCell id="rHH7kZXuoE2YYjR0WJDN-135" value="" style="endArrow=classic;html=1;" parent="1" edge="1">
          <mxGeometry width="50" height="50" relative="1" as="geometry">
            <mxPoint x="1247" y="140" as="sourcePoint" />
            <mxPoint x="1247" y="166.5" as="targetPoint" />
          </mxGeometry>
        </mxCell>
        <mxCell id="rHH7kZXuoE2YYjR0WJDN-136" value="Doctor" style="rounded=0;whiteSpace=wrap;html=1;" parent="1" vertex="1">
          <mxGeometry x="1190" y="165.5" width="120" height="30" as="geometry" />
        </mxCell>
        <mxCell id="rHH7kZXuoE2YYjR0WJDN-137" value="" style="endArrow=classic;html=1;exitX=0.142;exitY=1.1;exitDx=0;exitDy=0;exitPerimeter=0;" parent="1" edge="1">
          <mxGeometry width="50" height="50" relative="1" as="geometry">
            <mxPoint x="1201.04" y="195.5" as="sourcePoint" />
            <mxPoint x="1201" y="644.5" as="targetPoint" />
          </mxGeometry>
        </mxCell>
        <mxCell id="rHH7kZXuoE2YYjR0WJDN-138" value="" style="endArrow=classic;html=1;" parent="1" target="rHH7kZXuoE2YYjR0WJDN-139" edge="1">
          <mxGeometry width="50" height="50" relative="1" as="geometry">
            <mxPoint x="1200" y="235.5" as="sourcePoint" />
            <mxPoint x="1230" y="235.5" as="targetPoint" />
          </mxGeometry>
        </mxCell>
        <mxCell id="rHH7kZXuoE2YYjR0WJDN-139" value="Registartion" style="rounded=0;whiteSpace=wrap;html=1;" parent="1" vertex="1">
          <mxGeometry x="1230" y="215.5" width="120" height="40" as="geometry" />
        </mxCell>
        <mxCell id="rHH7kZXuoE2YYjR0WJDN-140" value="" style="endArrow=classic;html=1;" parent="1" edge="1">
          <mxGeometry width="50" height="50" relative="1" as="geometry">
            <mxPoint x="1200" y="284.5" as="sourcePoint" />
            <mxPoint x="1230" y="284.5" as="targetPoint" />
          </mxGeometry>
        </mxCell>
        <mxCell id="rHH7kZXuoE2YYjR0WJDN-141" value="Login" style="rounded=0;whiteSpace=wrap;html=1;" parent="1" vertex="1">
          <mxGeometry x="1230" y="265.5" width="120" height="40" as="geometry" />
        </mxCell>
        <mxCell id="rHH7kZXuoE2YYjR0WJDN-142" value="Add visit medical prescription" style="rounded=0;whiteSpace=wrap;html=1;" parent="1" vertex="1">
          <mxGeometry x="1230" y="365.5" width="120" height="40" as="geometry" />
        </mxCell>
        <mxCell id="rHH7kZXuoE2YYjR0WJDN-143" value="" style="endArrow=classic;html=1;entryX=0;entryY=0.5;entryDx=0;entryDy=0;" parent="1" target="rHH7kZXuoE2YYjR0WJDN-142" edge="1">
          <mxGeometry width="50" height="50" relative="1" as="geometry">
            <mxPoint x="1200" y="385.5" as="sourcePoint" />
            <mxPoint x="1240" y="345.5" as="targetPoint" />
          </mxGeometry>
        </mxCell>
        <mxCell id="rHH7kZXuoE2YYjR0WJDN-144" value="" style="endArrow=classic;html=1;" parent="1" edge="1">
          <mxGeometry width="50" height="50" relative="1" as="geometry">
            <mxPoint x="1200" y="436.5" as="sourcePoint" />
            <mxPoint x="1230" y="436.5" as="targetPoint" />
          </mxGeometry>
        </mxCell>
        <mxCell id="rHH7kZXuoE2YYjR0WJDN-145" value="Scan User Barcode" style="rounded=0;whiteSpace=wrap;html=1;" parent="1" vertex="1">
          <mxGeometry x="1230" y="416.5" width="120" height="40" as="geometry" />
        </mxCell>
        <mxCell id="rHH7kZXuoE2YYjR0WJDN-146" value="See User Medical history" style="rounded=0;whiteSpace=wrap;html=1;" parent="1" vertex="1">
          <mxGeometry x="1230" y="476.5" width="120" height="40" as="geometry" />
        </mxCell>
        <mxCell id="rHH7kZXuoE2YYjR0WJDN-147" value="" style="endArrow=classic;html=1;entryX=0;entryY=0.5;entryDx=0;entryDy=0;" parent="1" target="rHH7kZXuoE2YYjR0WJDN-146" edge="1">
          <mxGeometry width="50" height="50" relative="1" as="geometry">
            <mxPoint x="1200" y="496.5" as="sourcePoint" />
            <mxPoint x="1240" y="456.5" as="targetPoint" />
          </mxGeometry>
        </mxCell>
        <mxCell id="rHH7kZXuoE2YYjR0WJDN-148" value="Edit Profile/View Profile" style="rounded=0;whiteSpace=wrap;html=1;" parent="1" vertex="1">
          <mxGeometry x="1230" y="315.5" width="120" height="40" as="geometry" />
        </mxCell>
        <mxCell id="rHH7kZXuoE2YYjR0WJDN-149" value="" style="endArrow=classic;html=1;entryX=0;entryY=0.5;entryDx=0;entryDy=0;" parent="1" target="rHH7kZXuoE2YYjR0WJDN-148" edge="1">
          <mxGeometry width="50" height="50" relative="1" as="geometry">
            <mxPoint x="1200" y="335.5" as="sourcePoint" />
            <mxPoint x="1240" y="294.5" as="targetPoint" />
          </mxGeometry>
        </mxCell>
        <mxCell id="rHH7kZXuoE2YYjR0WJDN-150" value="Make Reports" style="rounded=0;whiteSpace=wrap;html=1;" parent="1" vertex="1">
          <mxGeometry x="1230" y="530" width="120" height="40" as="geometry" />
        </mxCell>
        <mxCell id="rHH7kZXuoE2YYjR0WJDN-151" value="" style="endArrow=classic;html=1;entryX=0;entryY=0.5;entryDx=0;entryDy=0;" parent="1" target="rHH7kZXuoE2YYjR0WJDN-150" edge="1">
          <mxGeometry width="50" height="50" relative="1" as="geometry">
            <mxPoint x="1200" y="550" as="sourcePoint" />
            <mxPoint x="1240" y="510" as="targetPoint" />
          </mxGeometry>
        </mxCell>
        <mxCell id="k4hUbSQ5DEobfekzXYVZ-1" value="Accept/Decline User&#39;s Registration" style="rounded=0;whiteSpace=wrap;html=1;" parent="1" vertex="1">
          <mxGeometry x="60" y="420" width="120" height="40" as="geometry" />
        </mxCell>
        <mxCell id="k4hUbSQ5DEobfekzXYVZ-2" value="" style="endArrow=classic;html=1;entryX=0;entryY=0.5;entryDx=0;entryDy=0;" parent="1" target="k4hUbSQ5DEobfekzXYVZ-1" edge="1">
          <mxGeometry width="50" height="50" relative="1" as="geometry">
            <mxPoint x="30" y="440" as="sourcePoint" />
            <mxPoint x="70" y="400" as="targetPoint" />
          </mxGeometry>
        </mxCell>
      </root>
    </mxGraphModel>
  </diagram>
</mxfile>
